<svg xmlns="http://www.w3.org/2000/svg" xmlns:xlink="http://www.w3.org/1999/xlink" width="200" zoomAndPan="magnify" viewBox="0 0 150 157.92" height="200" preserveAspectRatio="xMidYMid meet" version="1.0"><defs><clipPath id="ff729a13c7"><path d="M 75 74 L 94 74 L 94 107.074219 L 75 107.074219 Z M 75 74 " clip-rule="nonzero"/></clipPath><clipPath id="de7eb4e17f"><path d="M 56 74 L 75 74 L 75 107.074219 L 56 107.074219 Z M 56 74 " clip-rule="nonzero"/></clipPath><clipPath id="3dd2744ebd"><path d="M 82 42.609375 L 92 42.609375 L 92 52 L 82 52 Z M 82 42.609375 " clip-rule="nonzero"/></clipPath><clipPath id="7115071917"><path d="M 58 42.609375 L 68 42.609375 L 68 52 L 58 52 Z M 58 42.609375 " clip-rule="nonzero"/></clipPath><clipPath id="48a60b4842"><path d="M 94 82 L 110.863281 82 L 110.863281 86 L 94 86 Z M 94 82 " clip-rule="nonzero"/></clipPath><clipPath id="543fb3c27b"><path d="M 38.902344 82 L 56 82 L 56 86 L 38.902344 86 Z M 38.902344 82 " clip-rule="nonzero"/></clipPath></defs><path fill="#16b9a6" d="M 99.652344 71.195312 L 106.742188 64.109375 C 107.269531 63.578125 107.269531 62.714844 106.742188 62.183594 C 106.226562 61.671875 105.332031 61.671875 104.820312 62.183594 L 98.34375 68.660156 C 98.207031 68.796875 98.019531 68.875 97.824219 68.875 L 94.792969 68.875 L 94.792969 71.59375 L 98.691406 71.59375 C 99.054688 71.59375 99.398438 71.453125 99.652344 71.195312 " fill-opacity="1" fill-rule="nonzero"/><g clip-path="url(#ff729a13c7)"><path fill="#16b9a6" d="M 75.78125 78.59375 L 75.78125 107.3125 C 81.679688 107.078125 86.867188 104.035156 90.042969 99.484375 C 90.148438 99.332031 90.25 99.179688 90.351562 99.027344 C 90.4375 98.898438 90.519531 98.765625 90.601562 98.632812 C 90.734375 98.417969 90.863281 98.199219 90.988281 97.980469 C 91.027344 97.90625 91.074219 97.832031 91.113281 97.757812 C 91.277344 97.460938 91.425781 97.15625 91.570312 96.851562 C 91.613281 96.761719 91.652344 96.671875 91.691406 96.582031 C 91.804688 96.339844 91.910156 96.09375 92.007812 95.847656 C 92.851562 93.746094 93.320312 91.457031 93.320312 89.054688 L 93.320312 74.039062 C 91.039062 75.589844 85.511719 78.457031 75.78125 78.59375 " fill-opacity="1" fill-rule="nonzero"/></g><path fill="#16b9a6" d="M 50.347656 97.109375 L 43.257812 104.195312 C 43.003906 104.453125 42.859375 104.792969 42.859375 105.15625 C 42.859375 105.519531 43.003906 105.863281 43.257812 106.117188 C 43.773438 106.632812 44.667969 106.632812 45.179688 106.117188 L 51.65625 99.644531 C 51.792969 99.507812 51.980469 99.429688 52.175781 99.429688 L 58.242188 99.429688 C 58.226562 99.398438 58.210938 99.371094 58.191406 99.339844 C 57.972656 98.980469 57.765625 98.609375 57.566406 98.234375 C 57.515625 98.136719 57.464844 98.035156 57.414062 97.933594 C 57.210938 97.53125 57.015625 97.125 56.839844 96.710938 L 51.308594 96.710938 C 50.945312 96.710938 50.601562 96.851562 50.347656 97.109375 " fill-opacity="1" fill-rule="nonzero"/><g clip-path="url(#de7eb4e17f)"><path fill="#16b9a6" d="M 56.769531 74.039062 L 56.769531 89.054688 C 56.769531 91.457031 57.238281 93.75 58.085938 95.851562 C 58.183594 96.097656 58.285156 96.335938 58.394531 96.574219 C 58.433594 96.667969 58.476562 96.761719 58.519531 96.855469 C 58.660156 97.152344 58.808594 97.449219 58.964844 97.738281 C 59.011719 97.824219 59.0625 97.902344 59.109375 97.988281 C 59.230469 98.203125 59.355469 98.421875 59.488281 98.632812 C 59.570312 98.765625 59.65625 98.898438 59.742188 99.03125 C 59.839844 99.179688 59.941406 99.332031 60.042969 99.480469 C 63.21875 104.03125 68.40625 107.078125 74.308594 107.3125 L 74.308594 78.59375 C 64.578125 78.457031 59.050781 75.589844 56.769531 74.039062 " fill-opacity="1" fill-rule="nonzero"/></g><path fill="#16b9a6" d="M 75.042969 77.132812 C 86.5625 77.132812 92.175781 73.128906 93.320312 72.199219 L 93.320312 69.136719 C 93.320312 68.863281 93.296875 68.578125 93.242188 68.261719 C 93.226562 68.160156 93.230469 68.0625 93.253906 67.964844 C 92.882812 65.65625 90.882812 63.882812 88.46875 63.882812 L 61.621094 63.882812 C 59.207031 63.882812 57.207031 65.65625 56.835938 67.96875 C 56.859375 68.0625 56.863281 68.160156 56.847656 68.261719 C 56.792969 68.578125 56.769531 68.863281 56.769531 69.128906 L 56.769531 72.199219 C 57.914062 73.128906 63.527344 77.132812 75.042969 77.132812 " fill-opacity="1" fill-rule="nonzero"/><g clip-path="url(#3dd2744ebd)"><path fill="#16b9a6" d="M 90.886719 45.058594 C 91.136719 44.796875 91.273438 44.453125 91.265625 44.089844 C 91.261719 43.726562 91.113281 43.386719 90.851562 43.136719 C 90.3125 42.613281 89.449219 42.628906 88.929688 43.167969 L 82.890625 49.421875 C 82.941406 49.457031 82.988281 49.5 83.039062 49.539062 C 83.304688 49.730469 83.558594 49.933594 83.808594 50.140625 C 83.90625 50.222656 84 50.304688 84.09375 50.386719 C 84.335938 50.605469 84.574219 50.835938 84.800781 51.070312 C 84.847656 51.117188 84.898438 51.160156 84.945312 51.207031 L 90.886719 45.058594 " fill-opacity="1" fill-rule="nonzero"/></g><g clip-path="url(#7115071917)"><path fill="#16b9a6" d="M 61.070312 43.167969 C 60.804688 42.890625 60.449219 42.753906 60.089844 42.753906 C 59.75 42.753906 59.410156 42.878906 59.148438 43.136719 C 58.886719 43.386719 58.738281 43.726562 58.734375 44.089844 C 58.726562 44.453125 58.863281 44.796875 59.113281 45.058594 L 65.101562 51.253906 C 65.152344 51.199219 65.214844 51.148438 65.265625 51.09375 C 65.492188 50.859375 65.722656 50.636719 65.960938 50.417969 C 66.050781 50.335938 66.144531 50.257812 66.238281 50.179688 C 66.496094 49.960938 66.757812 49.753906 67.027344 49.554688 C 67.066406 49.523438 67.105469 49.488281 67.148438 49.460938 L 61.070312 43.167969 " fill-opacity="1" fill-rule="nonzero"/></g><path fill="#16b9a6" d="M 84.191406 52.578125 C 84.082031 52.453125 83.96875 52.332031 83.855469 52.210938 C 83.75 52.097656 83.640625 51.984375 83.53125 51.878906 C 83.398438 51.746094 83.257812 51.617188 83.117188 51.488281 C 83.015625 51.398438 82.914062 51.3125 82.8125 51.222656 C 82.640625 51.082031 82.46875 50.945312 82.292969 50.8125 C 82.191406 50.734375 82.082031 50.664062 81.976562 50.589844 C 81.84375 50.496094 81.710938 50.40625 81.574219 50.320312 C 79.6875 49.109375 77.449219 48.402344 75.042969 48.402344 C 72.640625 48.402344 70.398438 49.109375 68.511719 50.320312 C 68.351562 50.425781 68.191406 50.53125 68.039062 50.640625 C 67.925781 50.71875 67.8125 50.800781 67.707031 50.882812 C 67.550781 51.003906 67.398438 51.125 67.246094 51.253906 C 67.140625 51.339844 67.039062 51.429688 66.9375 51.519531 C 66.777344 51.664062 66.621094 51.808594 66.46875 51.960938 C 66.371094 52.0625 66.273438 52.167969 66.175781 52.269531 C 66.082031 52.371094 65.992188 52.472656 65.902344 52.574219 C 64.042969 54.707031 62.914062 57.488281 62.914062 60.53125 L 62.914062 62.410156 L 87.175781 62.410156 L 87.175781 60.53125 C 87.175781 57.492188 86.046875 54.710938 84.191406 52.578125 " fill-opacity="1" fill-rule="nonzero"/><g clip-path="url(#48a60b4842)"><path fill="#16b9a6" d="M 109.699219 85.511719 C 110.449219 85.511719 111.058594 84.902344 111.058594 84.152344 C 111.058594 83.402344 110.449219 82.792969 109.699219 82.792969 L 94.792969 82.792969 L 94.792969 85.511719 L 109.699219 85.511719 " fill-opacity="1" fill-rule="nonzero"/></g><path fill="#16b9a6" d="M 51.65625 68.660156 L 45.179688 62.183594 C 44.925781 61.929688 44.582031 61.785156 44.21875 61.785156 C 43.855469 61.785156 43.515625 61.929688 43.257812 62.183594 C 42.730469 62.714844 42.730469 63.578125 43.257812 64.109375 L 50.347656 71.195312 C 50.601562 71.453125 50.945312 71.59375 51.308594 71.59375 L 55.296875 71.59375 L 55.296875 68.875 L 52.175781 68.875 C 51.980469 68.875 51.792969 68.796875 51.65625 68.660156 " fill-opacity="1" fill-rule="nonzero"/><path fill="#16b9a6" d="M 97.824219 99.429688 C 98.019531 99.429688 98.207031 99.507812 98.34375 99.644531 L 104.816406 106.117188 C 105.332031 106.632812 106.226562 106.632812 106.742188 106.117188 C 106.996094 105.863281 107.140625 105.519531 107.140625 105.15625 C 107.140625 104.792969 106.996094 104.453125 106.742188 104.195312 L 99.652344 97.109375 C 99.398438 96.851562 99.054688 96.710938 98.691406 96.710938 L 93.25 96.710938 C 93.074219 97.125 92.878906 97.535156 92.675781 97.9375 C 92.625 98.035156 92.574219 98.136719 92.523438 98.234375 C 92.324219 98.609375 92.117188 98.980469 91.894531 99.34375 C 91.878906 99.371094 91.863281 99.402344 91.847656 99.429688 L 97.824219 99.429688 " fill-opacity="1" fill-rule="nonzero"/><g clip-path="url(#543fb3c27b)"><path fill="#16b9a6" d="M 38.941406 84.152344 C 38.941406 84.902344 39.550781 85.511719 40.300781 85.511719 L 55.296875 85.511719 L 55.296875 82.792969 L 40.300781 82.792969 C 39.550781 82.792969 38.941406 83.402344 38.941406 84.152344 " fill-opacity="1" fill-rule="nonzero"/></g></svg>