<svg xmlns="http://www.w3.org/2000/svg" xmlns:xlink="http://www.w3.org/1999/xlink" width="40" zoomAndPan="magnify" viewBox="0 0 30 37.92" height="40" preserveAspectRatio="xMidYMid meet" version="1.0"><defs><clipPath id="c8f77e96be"><path d="M 2.140625 16 L 22 16 L 22 26.21875 L 2.140625 26.21875 Z M 2.140625 16 " clip-rule="nonzero"/></clipPath><clipPath id="332294a732"><path d="M 14 3.765625 L 27.585938 3.765625 L 27.585938 16 L 14 16 Z M 14 3.765625 " clip-rule="nonzero"/></clipPath></defs><g clip-path="url(#c8f77e96be)"><path fill="#16b9a6" d="M 20.585938 19.609375 C 20.484375 18.964844 20.15625 18.464844 19.601562 18.117188 C 18.597656 17.574219 17.539062 17.183594 16.421875 16.949219 C 15.875 16.835938 15.34375 16.679688 14.820312 16.480469 L 12.667969 19.988281 L 12.449219 18.230469 C 12.671875 18.125 12.785156 17.945312 12.785156 17.695312 L 12.785156 17.558594 C 12.785156 17.394531 12.726562 17.253906 12.609375 17.136719 C 12.496094 17.019531 12.355469 16.960938 12.1875 16.960938 L 11.125 16.960938 C 10.960938 16.960938 10.820312 17.019531 10.703125 17.136719 C 10.585938 17.253906 10.527344 17.394531 10.527344 17.558594 L 10.527344 17.695312 C 10.527344 17.945312 10.640625 18.125 10.863281 18.230469 L 10.644531 19.988281 L 8.492188 16.480469 C 7.96875 16.679688 7.4375 16.835938 6.890625 16.949219 C 5.773438 17.183594 4.714844 17.574219 3.710938 18.117188 C 3.15625 18.464844 2.828125 18.964844 2.726562 19.609375 L 2.496094 21.007812 C 2.335938 21.996094 2.253906 22.988281 2.253906 23.988281 L 2.253906 24.714844 C 2.253906 24.910156 2.292969 25.097656 2.367188 25.277344 C 2.441406 25.460938 2.550781 25.621094 2.6875 25.757812 C 2.828125 25.898438 2.984375 26.003906 3.167969 26.078125 C 3.347656 26.152344 3.539062 26.191406 3.734375 26.191406 L 19.578125 26.191406 C 19.777344 26.191406 19.964844 26.152344 20.144531 26.078125 C 20.328125 26.003906 20.488281 25.898438 20.625 25.757812 C 20.765625 25.621094 20.871094 25.460938 20.945312 25.277344 C 21.019531 25.097656 21.058594 24.910156 21.058594 24.714844 L 21.058594 23.988281 C 21.058594 22.988281 20.976562 21.996094 20.816406 21.007812 Z M 20.585938 19.609375 " fill-opacity="1" fill-rule="nonzero"/></g><path fill="#16b9a6" d="M 11.65625 15.773438 C 13.902344 15.773438 15.722656 11.804688 15.722656 9.558594 C 15.722656 9.292969 15.695312 9.027344 15.644531 8.765625 C 15.59375 8.503906 15.515625 8.25 15.414062 8.003906 C 15.3125 7.757812 15.1875 7.523438 15.039062 7.300781 C 14.890625 7.078125 14.722656 6.871094 14.53125 6.683594 C 14.34375 6.492188 14.140625 6.324219 13.917969 6.175781 C 13.695312 6.027344 13.460938 5.902344 13.214844 5.800781 C 12.964844 5.699219 12.710938 5.621094 12.449219 5.570312 C 12.1875 5.515625 11.921875 5.488281 11.65625 5.488281 C 11.390625 5.488281 11.125 5.515625 10.863281 5.570312 C 10.601562 5.621094 10.347656 5.699219 10.097656 5.800781 C 9.851562 5.902344 9.617188 6.027344 9.394531 6.175781 C 9.175781 6.324219 8.96875 6.492188 8.78125 6.683594 C 8.589844 6.871094 8.421875 7.078125 8.273438 7.300781 C 8.125 7.523438 8 7.757812 7.898438 8.003906 C 7.796875 8.25 7.71875 8.503906 7.667969 8.765625 C 7.617188 9.027344 7.589844 9.292969 7.589844 9.558594 C 7.589844 11.804688 9.410156 15.773438 11.65625 15.773438 Z M 11.65625 15.773438 " fill-opacity="1" fill-rule="nonzero"/><g clip-path="url(#332294a732)"><path fill="#16b9a6" d="M 25.867188 3.785156 L 16.25 3.785156 C 16.03125 3.785156 15.816406 3.824219 15.609375 3.902344 C 15.40625 3.976562 15.21875 4.085938 15.050781 4.230469 C 14.886719 4.375 14.75 4.542969 14.644531 4.738281 C 14.539062 4.929688 14.46875 5.136719 14.4375 5.351562 C 14.832031 5.613281 15.183594 5.925781 15.492188 6.289062 L 15.492188 5.621094 C 15.492188 5.410156 15.566406 5.230469 15.714844 5.085938 C 15.863281 4.9375 16.042969 4.863281 16.25 4.863281 L 25.867188 4.863281 C 26.074219 4.863281 26.253906 4.9375 26.402344 5.085938 C 26.550781 5.230469 26.621094 5.410156 26.625 5.621094 L 26.625 11.503906 C 26.621094 11.710938 26.550781 11.890625 26.402344 12.039062 C 26.253906 12.1875 26.074219 12.261719 25.867188 12.261719 L 23.96875 12.261719 C 23.769531 12.261719 23.589844 12.316406 23.425781 12.429688 L 19.824219 14.882812 L 19.484375 13.050781 C 19.445312 12.820312 19.332031 12.632812 19.152344 12.484375 C 18.976562 12.335938 18.769531 12.261719 18.535156 12.261719 L 16.25 12.261719 C 16.226562 12.261719 16.199219 12.261719 16.175781 12.257812 C 16.054688 12.601562 15.917969 12.941406 15.761719 13.273438 C 15.921875 13.316406 16.085938 13.339844 16.25 13.339844 L 18.441406 13.339844 L 18.769531 15.117188 C 18.800781 15.292969 18.875 15.449219 18.984375 15.589844 C 19.097656 15.726562 19.234375 15.832031 19.398438 15.898438 C 19.5625 15.96875 19.734375 15.992188 19.910156 15.972656 C 20.085938 15.957031 20.25 15.898438 20.394531 15.796875 L 24.003906 13.339844 L 25.867188 13.339844 C 26.109375 13.335938 26.34375 13.289062 26.566406 13.199219 C 26.792969 13.105469 26.992188 12.972656 27.164062 12.800781 C 27.335938 12.628906 27.46875 12.429688 27.558594 12.203125 C 27.652344 11.980469 27.699219 11.746094 27.699219 11.503906 L 27.699219 5.621094 C 27.699219 5.375 27.652344 5.144531 27.558594 4.917969 C 27.46875 4.695312 27.335938 4.496094 27.164062 4.324219 C 26.992188 4.152344 26.792969 4.019531 26.566406 3.925781 C 26.34375 3.832031 26.109375 3.785156 25.867188 3.785156 Z M 25.867188 3.785156 " fill-opacity="1" fill-rule="nonzero"/></g></svg>