<svg xmlns="http://www.w3.org/2000/svg" xmlns:xlink="http://www.w3.org/1999/xlink" width="40" zoomAndPan="magnify" viewBox="0 0 30 37.92" height="40" preserveAspectRatio="xMidYMid meet" version="1.0"><defs><clipPath id="a87ff5e8e3"><path d="M 6.894531 6.1875 L 22.613281 6.1875 L 22.613281 25.644531 L 6.894531 25.644531 Z M 6.894531 6.1875 " clip-rule="nonzero"/></clipPath><clipPath id="c139accde2"><path d="M 16.703125 6.1875 L 22.613281 6.1875 L 22.613281 12.125 L 16.703125 12.125 Z M 16.703125 6.1875 " clip-rule="nonzero"/></clipPath></defs><g clip-path="url(#a87ff5e8e3)"><path fill="#16b9a6" d="M 22.648438 12.09375 L 22.648438 25.878906 L 6.894531 25.878906 L 6.894531 6.1875 L 16.738281 6.1875 L 16.738281 12.09375 L 22.648438 12.09375 " fill-opacity="1" fill-rule="nonzero"/></g><g clip-path="url(#c139accde2)"><path fill="#c0eaf3" d="M 22.648438 12.09375 L 16.738281 12.09375 L 16.738281 6.1875 Z M 22.648438 12.09375 " fill-opacity="1" fill-rule="nonzero"/></g><path fill="#ffffff" d="M 10.832031 22.265625 L 18.710938 22.265625 L 18.710938 20.953125 L 10.832031 20.953125 L 10.832031 22.265625 " fill-opacity="1" fill-rule="nonzero"/><path fill="#ffffff" d="M 10.832031 19.640625 L 17.394531 19.640625 L 17.394531 18.328125 L 10.832031 18.328125 L 10.832031 19.640625 " fill-opacity="1" fill-rule="nonzero"/><path fill="#ffffff" d="M 10.832031 17.015625 L 18.710938 17.015625 L 18.710938 15.703125 L 10.832031 15.703125 L 10.832031 17.015625 " fill-opacity="1" fill-rule="nonzero"/></svg>