<svg xmlns="http://www.w3.org/2000/svg" xmlns:xlink="http://www.w3.org/1999/xlink" width="200" zoomAndPan="magnify" viewBox="0 0 150 157.92" height="200" preserveAspectRatio="xMidYMid meet" version="1.0"><defs><clipPath id="ba74b3b541"><path d="M 34.328125 37.847656 L 73 37.847656 L 73 73 L 34.328125 73 Z M 34.328125 37.847656 " clip-rule="nonzero"/></clipPath><clipPath id="0dabf83b05"><path d="M 53 60 L 116 60 L 116 112.0625 L 53 112.0625 Z M 53 60 " clip-rule="nonzero"/></clipPath></defs><path fill="#16b9a6" d="M 73.867188 58.328125 L 106.277344 58.328125 C 105.824219 54.960938 102.925781 52.382812 99.472656 52.382812 L 73.867188 52.382812 Z M 73.867188 58.328125 " fill-opacity="1" fill-rule="evenodd"/><g clip-path="url(#ba74b3b541)"><path fill="#16b9a6" d="M 64.300781 57.132812 C 65.4375 57.132812 65.4375 58.863281 64.300781 58.863281 L 42.164062 58.863281 C 41.023438 58.863281 41.023438 57.132812 42.164062 57.132812 Z M 64.300781 50.378906 C 65.4375 50.378906 65.4375 52.109375 64.300781 52.109375 L 42.164062 52.109375 C 41.023438 52.109375 41.023438 50.378906 42.164062 50.378906 Z M 64.300781 43.628906 C 65.4375 43.628906 65.4375 45.359375 64.300781 45.359375 L 42.164062 45.359375 C 41.023438 45.359375 41.023438 43.628906 42.164062 43.628906 Z M 66.441406 65.15625 L 68.222656 65.15625 C 70.492188 65.15625 72.136719 63.019531 72.136719 60.699219 L 72.136719 42.335938 C 72.136719 40.019531 70.492188 37.878906 68.222656 37.878906 L 38.242188 37.878906 C 35.972656 37.878906 34.328125 40.019531 34.328125 42.335938 L 34.328125 60.699219 C 34.328125 63.019531 35.972656 65.15625 38.242188 65.15625 L 55.542969 65.15625 C 55.769531 65.15625 55.976562 65.246094 56.132812 65.386719 L 65.574219 72.769531 L 65.574219 66.023438 C 65.574219 65.542969 65.960938 65.15625 66.441406 65.15625 Z M 66.441406 65.15625 " fill-opacity="1" fill-rule="evenodd"/></g><path fill="#16b9a6" d="M 44.121094 66.886719 L 44.121094 85.914062 C 44.121094 89.695312 47.207031 92.78125 50.988281 92.78125 L 51.71875 92.78125 L 51.71875 66.886719 Z M 44.121094 66.886719 " fill-opacity="1" fill-rule="evenodd"/><g clip-path="url(#0dabf83b05)"><path fill="#16b9a6" d="M 53.445312 66.886719 L 53.445312 93.589844 C 53.445312 97.367188 56.53125 100.453125 60.3125 100.453125 L 63.191406 100.453125 C 63.671875 100.453125 64.058594 100.839844 64.058594 101.320312 L 64.058594 112.023438 L 80.277344 100.640625 C 80.425781 100.523438 80.613281 100.453125 80.816406 100.453125 L 108.824219 100.453125 C 112.589844 100.453125 115.660156 97.378906 115.660156 93.613281 L 115.660156 66.921875 C 115.660156 63.140625 112.578125 60.058594 108.796875 60.058594 L 73.867188 60.058594 L 73.867188 60.699219 C 73.867188 63.964844 71.460938 66.886719 68.222656 66.886719 L 67.304688 66.886719 L 67.304688 74.539062 L 67.300781 74.539062 C 67.300781 75.234375 66.480469 75.664062 65.910156 75.21875 L 55.25 66.886719 Z M 84.246094 89.476562 C 86.722656 89.476562 87.96875 92.480469 86.21875 94.234375 C 84.464844 95.984375 81.460938 94.738281 81.460938 92.261719 C 81.460938 90.726562 82.710938 89.476562 84.246094 89.476562 Z M 84.996094 91.515625 C 85.40625 91.929688 85.40625 92.597656 84.996094 93.011719 C 84.332031 93.671875 83.191406 93.203125 83.191406 92.261719 C 83.191406 91.324219 84.332031 90.855469 84.996094 91.515625 Z M 79.125 72.003906 C 78.875 72.953125 77.269531 72.613281 77.527344 71.621094 C 78.339844 68.472656 81.1875 66.238281 84.492188 66.238281 C 92.867188 66.238281 94.226562 78.070312 86.617188 80.304688 C 85.863281 80.527344 85.351562 81.214844 85.351562 81.996094 L 85.351562 85.601562 C 85.351562 87.179688 83.175781 87.195312 83.175781 85.601562 L 83.175781 81.597656 C 83.175781 80.238281 84.140625 79.109375 85.480469 78.902344 C 89.59375 78.261719 90.980469 73.675781 89.257812 70.5625 C 86.953125 66.386719 80.390625 67.214844 79.125 72.003906 Z M 82.164062 70.390625 C 81.503906 70.898438 81.011719 71.617188 80.792969 72.445312 C 79.960938 75.59375 75.027344 74.398438 75.855469 71.191406 C 76.867188 67.285156 80.40625 64.507812 84.492188 64.507812 C 94.855469 64.507812 96.605469 79.1875 87.105469 81.960938 L 87.082031 81.996094 L 87.082031 85.601562 C 87.082031 89.457031 81.445312 89.480469 81.445312 85.601562 L 81.445312 81.597656 C 81.445312 79.394531 83.03125 77.539062 85.214844 77.199219 C 89.457031 76.535156 89.300781 69.605469 84.492188 69.605469 C 83.613281 69.605469 82.804688 69.898438 82.164062 70.390625 Z M 82.164062 70.390625 " fill-opacity="1" fill-rule="evenodd"/></g></svg>