<svg xmlns="http://www.w3.org/2000/svg" xmlns:xlink="http://www.w3.org/1999/xlink" width="200" zoomAndPan="magnify" viewBox="0 0 150 149.999998" height="200" preserveAspectRatio="xMidYMid meet" version="1.0"><defs><clipPath id="ae3477a6d1"><path d="M 5.152344 1.933594 L 144.847656 1.933594 L 144.847656 141.632812 L 5.152344 141.632812 Z M 5.152344 1.933594 " clip-rule="nonzero"/></clipPath><clipPath id="a0a458a428"><path d="M 75 1.933594 C 36.421875 1.933594 5.152344 33.207031 5.152344 71.785156 C 5.152344 110.359375 36.421875 141.632812 75 141.632812 C 113.578125 141.632812 144.847656 110.359375 144.847656 71.785156 C 144.847656 33.207031 113.578125 1.933594 75 1.933594 Z M 75 1.933594 " clip-rule="nonzero"/></clipPath><clipPath id="9db7dc1acf"><path d="M 0.152344 0.933594 L 139.847656 0.933594 L 139.847656 140.632812 L 0.152344 140.632812 Z M 0.152344 0.933594 " clip-rule="nonzero"/></clipPath><clipPath id="02bfa29758"><path d="M 70 0.933594 C 31.421875 0.933594 0.152344 32.207031 0.152344 70.785156 C 0.152344 109.359375 31.421875 140.632812 70 140.632812 C 108.578125 140.632812 139.847656 109.359375 139.847656 70.785156 C 139.847656 32.207031 108.578125 0.933594 70 0.933594 Z M 70 0.933594 " clip-rule="nonzero"/></clipPath><clipPath id="33c6b74c1c"><rect x="0" width="140" y="0" height="141"/></clipPath><clipPath id="f3537187f3"><path d="M 33.464844 25.578125 L 123.464844 25.578125 L 123.464844 125 L 33.464844 125 Z M 33.464844 25.578125 " clip-rule="nonzero"/></clipPath></defs><rect x="-15" width="180" fill="#ffffff" y="-15" height="179.999997" fill-opacity="1"/><rect x="-15" width="180" fill="#c0eaf3" y="-15" height="179.999997" fill-opacity="1"/><g clip-path="url(#ae3477a6d1)"><g clip-path="url(#a0a458a428)"><g transform="matrix(1, 0, 0, 1, 5, 1)"><g clip-path="url(#33c6b74c1c)"><g clip-path="url(#9db7dc1acf)"><g clip-path="url(#02bfa29758)"><path fill="#ffffff" d="M 0.152344 0.933594 L 139.847656 0.933594 L 139.847656 140.632812 L 0.152344 140.632812 Z M 0.152344 0.933594 " fill-opacity="1" fill-rule="nonzero"/></g></g></g></g></g></g><g clip-path="url(#f3537187f3)"><path fill="#16b9a6" d="M 105.4375 25.582031 C 115.386719 25.582031 123.453125 33.648438 123.453125 43.597656 C 123.453125 53.546875 115.386719 61.613281 105.4375 61.613281 C 95.484375 61.613281 87.421875 53.546875 87.421875 43.597656 C 87.421875 33.648438 95.484375 25.582031 105.4375 25.582031 Z M 112.800781 63.160156 C 113.972656 67 114.566406 71.007812 114.566406 75.019531 C 114.566406 86.082031 110.105469 96.566406 102.136719 104.238281 C 101.8125 103.234375 101.433594 102.253906 101.003906 101.300781 C 107.613281 94.511719 111.683594 85.242188 111.683594 75.019531 C 111.683594 71.273438 111.140625 67.566406 110.046875 63.984375 C 110.992188 63.773438 111.910156 63.496094 112.800781 63.160156 Z M 45.886719 104.234375 C 37.933594 96.574219 33.457031 86.078125 33.457031 75.019531 C 33.457031 52.621094 51.613281 34.464844 74.011719 34.464844 C 78.027344 34.464844 82.035156 35.058594 85.875 36.230469 C 85.539062 37.121094 85.261719 38.042969 85.046875 38.988281 C 81.46875 37.894531 77.757812 37.347656 74.011719 37.347656 C 53.207031 37.347656 36.339844 54.214844 36.339844 75.019531 C 36.339844 84.882812 40.148438 94.246094 47.019531 101.300781 C 46.59375 102.257812 46.214844 103.234375 45.886719 104.234375 Z M 100.707031 113.402344 C 100.707031 102.097656 93.683594 92.4375 83.761719 88.542969 C 87.816406 91.609375 90.226562 96.375 90.226562 101.480469 L 90.226562 102.925781 C 91.40625 103.472656 92.226562 104.664062 92.226562 106.046875 C 92.226562 107.949219 90.683594 109.488281 88.785156 109.488281 C 86.886719 109.488281 85.347656 107.949219 85.347656 106.046875 C 85.347656 104.664062 86.164062 103.472656 87.34375 102.925781 L 87.34375 101.480469 C 87.34375 94.148438 81.34375 88.148438 74.015625 88.148438 C 67.820312 88.148438 62.410156 92.476562 61.019531 98.5 C 63.960938 99.390625 65.59375 102.730469 66.355469 105.460938 C 67.71875 110.34375 65.636719 111.917969 63.867188 112.410156 C 63.714844 112.453125 63.566406 112.488281 63.421875 112.511719 C 63.082031 112.828125 62.625 113.023438 62.125 113.023438 C 61.078125 113.023438 60.230469 112.175781 60.230469 111.128906 C 60.230469 110.082031 61.078125 109.234375 62.125 109.234375 C 62.539062 109.234375 62.921875 109.367188 63.234375 109.59375 C 63.761719 109.359375 64.242188 108.585938 63.585938 106.226562 C 63.125 104.585938 61.777344 101.175781 59.632812 101.175781 C 57.492188 101.175781 56.144531 104.585938 55.683594 106.226562 C 55.023438 108.585938 55.507812 109.359375 56.035156 109.59375 C 56.347656 109.367188 56.730469 109.234375 57.144531 109.234375 C 58.191406 109.234375 59.039062 110.082031 59.039062 111.128906 C 59.039062 112.175781 58.191406 113.023438 57.144531 113.023438 C 56.644531 113.023438 56.1875 112.828125 55.847656 112.511719 C 55.703125 112.484375 55.554688 112.453125 55.402344 112.410156 C 53.632812 111.914062 51.546875 110.34375 52.914062 105.460938 C 53.664062 102.78125 55.234375 99.539062 58.066406 98.558594 C 58.800781 94.558594 61.03125 90.988281 64.269531 88.542969 C 54.34375 92.433594 47.316406 102.097656 47.316406 113.402344 C 47.316406 128.144531 100.707031 128.144531 100.707031 113.402344 Z M 61.675781 67.257812 C 61.675781 74.070312 67.199219 79.597656 74.011719 79.597656 C 80.828125 79.597656 86.351562 74.070312 86.351562 67.257812 C 86.351562 60.445312 80.828125 54.921875 74.011719 54.921875 C 67.199219 54.921875 61.675781 60.445312 61.675781 67.257812 Z M 101.445312 33.28125 L 101.445312 39.605469 L 95.121094 39.605469 L 95.121094 47.589844 L 101.445312 47.589844 L 101.445312 53.910156 L 109.429688 53.910156 L 109.429688 47.589844 L 115.75 47.589844 L 115.75 39.605469 L 109.429688 39.605469 L 109.429688 33.28125 Z M 101.445312 33.28125 " fill-opacity="1" fill-rule="evenodd"/></g></svg>