<svg xmlns="http://www.w3.org/2000/svg" xmlns:xlink="http://www.w3.org/1999/xlink" width="200" zoomAndPan="magnify" viewBox="0 0 150 149.999998" height="200" preserveAspectRatio="xMidYMid meet" version="1.0"><defs><clipPath id="66bbe0750c"><path d="M 11 82 L 106 82 L 106 131.363281 L 11 131.363281 Z M 11 82 " clip-rule="nonzero"/></clipPath><clipPath id="ae3b1552f6"><path d="M 72 18.863281 L 139 18.863281 L 139 81 L 72 81 Z M 72 18.863281 " clip-rule="nonzero"/></clipPath></defs><rect x="-15" width="180" fill="#ffffff" y="-15" height="179.999997" fill-opacity="1"/><rect x="-15" width="180" fill="#ffffff" y="-15" height="179.999997" fill-opacity="1"/><g clip-path="url(#66bbe0750c)"><path fill="#16b9a6" d="M 102.992188 98.253906 C 102.75 96.710938 102.199219 95.289062 101.335938 93.984375 C 100.476562 92.679688 99.386719 91.613281 98.0625 90.78125 C 93.039062 88.050781 87.730469 86.097656 82.132812 84.925781 C 79.398438 84.355469 76.726562 83.574219 74.113281 82.578125 L 63.3125 100.152344 L 62.21875 91.351562 C 62.734375 91.105469 63.144531 90.738281 63.453125 90.253906 C 63.757812 89.765625 63.910156 89.238281 63.910156 88.664062 L 63.910156 87.972656 C 63.910156 87.578125 63.835938 87.195312 63.683594 86.828125 C 63.53125 86.464844 63.316406 86.140625 63.035156 85.859375 C 62.753906 85.578125 62.433594 85.363281 62.066406 85.210938 C 61.699219 85.058594 61.316406 84.984375 60.921875 84.984375 L 55.585938 84.984375 C 55.1875 84.984375 54.804688 85.058594 54.441406 85.210938 C 54.074219 85.363281 53.75 85.578125 53.46875 85.859375 C 53.191406 86.140625 52.972656 86.464844 52.820312 86.828125 C 52.671875 87.195312 52.59375 87.578125 52.59375 87.972656 L 52.59375 88.664062 C 52.59375 89.238281 52.746094 89.765625 53.050781 90.253906 C 53.355469 90.738281 53.765625 91.105469 54.285156 91.351562 L 53.191406 100.152344 L 42.390625 82.578125 C 39.777344 83.574219 37.105469 84.355469 34.371094 84.925781 C 28.773438 86.097656 23.464844 88.050781 18.441406 90.78125 C 17.121094 91.613281 16.027344 92.679688 15.167969 93.984375 C 14.308594 95.285156 13.757812 96.710938 13.511719 98.253906 L 12.363281 105.261719 C 11.550781 110.207031 11.144531 115.1875 11.144531 120.199219 L 11.144531 123.824219 C 11.144531 124.3125 11.191406 124.792969 11.289062 125.269531 C 11.382812 125.746094 11.523438 126.210938 11.707031 126.660156 C 11.894531 127.109375 12.125 127.535156 12.394531 127.941406 C 12.664062 128.347656 12.972656 128.71875 13.316406 129.0625 C 13.660156 129.40625 14.03125 129.714844 14.4375 129.984375 C 14.84375 130.253906 15.269531 130.484375 15.71875 130.671875 C 16.167969 130.855469 16.632812 130.996094 17.109375 131.089844 C 17.585938 131.1875 18.066406 131.234375 18.554688 131.234375 L 97.953125 131.234375 C 98.4375 131.234375 98.921875 131.1875 99.398438 131.089844 C 99.875 130.996094 100.335938 130.855469 100.789062 130.671875 C 101.238281 130.484375 101.664062 130.253906 102.066406 129.984375 C 102.472656 129.714844 102.847656 129.40625 103.191406 129.0625 C 103.535156 128.71875 103.839844 128.347656 104.113281 127.941406 C 104.382812 127.535156 104.609375 127.109375 104.796875 126.660156 C 104.984375 126.210938 105.125 125.746094 105.21875 125.269531 C 105.3125 124.792969 105.359375 124.3125 105.359375 123.824219 L 105.359375 120.199219 C 105.359375 115.1875 104.953125 110.207031 104.144531 105.261719 Z M 102.992188 98.253906 " fill-opacity="1" fill-rule="nonzero"/></g><path fill="#16b9a6" d="M 58.253906 79.039062 C 69.503906 79.039062 78.625 59.152344 78.625 47.902344 C 78.625 47.234375 78.59375 46.566406 78.53125 45.902344 C 78.464844 45.238281 78.367188 44.578125 78.238281 43.925781 C 78.109375 43.269531 77.945312 42.621094 77.753906 41.984375 C 77.558594 41.34375 77.335938 40.714844 77.082031 40.097656 C 76.824219 39.480469 76.539062 38.878906 76.226562 38.289062 C 75.914062 37.699219 75.570312 37.128906 75.199219 36.574219 C 74.828125 36.019531 74.433594 35.480469 74.007812 34.964844 C 73.585938 34.449219 73.136719 33.957031 72.664062 33.484375 C 72.195312 33.011719 71.699219 32.5625 71.183594 32.140625 C 70.667969 31.714844 70.132812 31.316406 69.578125 30.945312 C 69.023438 30.574219 68.449219 30.230469 67.863281 29.917969 C 67.273438 29.601562 66.671875 29.316406 66.054688 29.0625 C 65.4375 28.804688 64.808594 28.582031 64.171875 28.386719 C 63.53125 28.191406 62.882812 28.03125 62.230469 27.902344 C 61.574219 27.769531 60.914062 27.671875 60.25 27.605469 C 59.585938 27.542969 58.921875 27.507812 58.253906 27.507812 C 57.585938 27.507812 56.917969 27.542969 56.253906 27.605469 C 55.589844 27.671875 54.929688 27.769531 54.277344 27.902344 C 53.621094 28.03125 52.972656 28.191406 52.335938 28.386719 C 51.695312 28.582031 51.070312 28.804688 50.453125 29.0625 C 49.835938 29.316406 49.230469 29.601562 48.644531 29.917969 C 48.054688 30.230469 47.484375 30.574219 46.929688 30.945312 C 46.371094 31.316406 45.835938 31.714844 45.320312 32.140625 C 44.804688 32.5625 44.3125 33.011719 43.839844 33.484375 C 43.367188 33.957031 42.921875 34.449219 42.496094 34.964844 C 42.074219 35.480469 41.675781 36.019531 41.304688 36.574219 C 40.9375 37.128906 40.59375 37.699219 40.277344 38.289062 C 39.964844 38.878906 39.679688 39.480469 39.425781 40.097656 C 39.167969 40.714844 38.945312 41.34375 38.753906 41.984375 C 38.558594 42.621094 38.398438 43.269531 38.269531 43.925781 C 38.136719 44.578125 38.039062 45.238281 37.976562 45.902344 C 37.910156 46.566406 37.878906 47.234375 37.878906 47.902344 C 37.878906 59.152344 47 79.039062 58.253906 79.039062 Z M 58.253906 79.039062 " fill-opacity="1" fill-rule="nonzero"/><g clip-path="url(#ae3b1552f6)"><path fill="#16b9a6" d="M 129.453125 18.964844 L 81.269531 18.964844 C 80.722656 18.964844 80.179688 19.011719 79.640625 19.109375 C 79.105469 19.207031 78.578125 19.351562 78.066406 19.542969 C 77.554688 19.734375 77.0625 19.96875 76.59375 20.25 C 76.121094 20.527344 75.679688 20.84375 75.265625 21.203125 C 74.851562 21.558594 74.472656 21.953125 74.128906 22.375 C 73.785156 22.800781 73.484375 23.253906 73.21875 23.734375 C 72.957031 24.210938 72.738281 24.710938 72.5625 25.230469 C 72.390625 25.75 72.261719 26.277344 72.183594 26.820312 C 74.167969 28.132812 75.933594 29.699219 77.476562 31.507812 L 77.476562 28.15625 C 77.476562 27.65625 77.574219 27.171875 77.765625 26.707031 C 77.957031 26.242188 78.234375 25.832031 78.589844 25.476562 C 78.945312 25.121094 79.351562 24.84375 79.816406 24.652344 C 80.28125 24.457031 80.765625 24.363281 81.269531 24.359375 L 129.453125 24.359375 C 129.953125 24.363281 130.4375 24.457031 130.902344 24.652344 C 131.367188 24.84375 131.777344 25.121094 132.132812 25.476562 C 132.488281 25.832031 132.761719 26.242188 132.953125 26.707031 C 133.148438 27.171875 133.242188 27.65625 133.242188 28.15625 L 133.242188 57.636719 C 133.242188 58.140625 133.148438 58.625 132.953125 59.089844 C 132.761719 59.554688 132.488281 59.964844 132.132812 60.320312 C 131.777344 60.675781 131.367188 60.949219 130.902344 61.144531 C 130.4375 61.335938 129.953125 61.433594 129.453125 61.433594 L 119.941406 61.433594 C 118.949219 61.433594 118.039062 61.710938 117.21875 62.273438 L 99.167969 74.574219 L 97.480469 65.394531 C 97.378906 64.835938 97.183594 64.316406 96.898438 63.828125 C 96.613281 63.339844 96.253906 62.914062 95.820312 62.554688 C 95.386719 62.191406 94.902344 61.914062 94.371094 61.722656 C 93.839844 61.53125 93.292969 61.433594 92.726562 61.433594 L 81.269531 61.433594 C 81.144531 61.433594 81.019531 61.429688 80.898438 61.414062 C 80.289062 63.144531 79.597656 64.835938 78.820312 66.496094 C 79.621094 66.71875 80.4375 66.832031 81.269531 66.832031 L 92.253906 66.832031 L 93.898438 75.75 C 93.9375 75.964844 93.988281 76.175781 94.054688 76.386719 C 94.121094 76.59375 94.199219 76.796875 94.289062 76.996094 C 94.378906 77.195312 94.484375 77.386719 94.597656 77.574219 C 94.710938 77.757812 94.839844 77.9375 94.976562 78.105469 C 95.113281 78.277344 95.257812 78.4375 95.414062 78.589844 C 95.574219 78.742188 95.738281 78.882812 95.914062 79.015625 C 96.085938 79.144531 96.269531 79.265625 96.457031 79.375 C 96.648438 79.480469 96.84375 79.578125 97.046875 79.664062 C 97.246094 79.746094 97.453125 79.816406 97.664062 79.875 C 97.875 79.933594 98.085938 79.980469 98.300781 80.011719 C 98.519531 80.042969 98.734375 80.0625 98.953125 80.066406 C 99.171875 80.074219 99.390625 80.0625 99.605469 80.042969 C 99.824219 80.019531 100.039062 79.984375 100.25 79.933594 C 100.464844 79.886719 100.671875 79.824219 100.878906 79.75 C 101.082031 79.671875 101.28125 79.585938 101.476562 79.484375 C 101.671875 79.386719 101.859375 79.273438 102.039062 79.152344 L 120.113281 66.832031 L 129.453125 66.832031 C 130.054688 66.832031 130.652344 66.769531 131.242188 66.652344 C 131.835938 66.535156 132.410156 66.359375 132.96875 66.128906 C 133.523438 65.894531 134.054688 65.613281 134.554688 65.277344 C 135.058594 64.941406 135.519531 64.5625 135.949219 64.132812 C 136.375 63.707031 136.753906 63.242188 137.089844 62.742188 C 137.425781 62.238281 137.707031 61.710938 137.941406 61.152344 C 138.171875 60.59375 138.34375 60.019531 138.464844 59.429688 C 138.582031 58.835938 138.640625 58.238281 138.640625 57.636719 L 138.640625 28.15625 C 138.640625 27.554688 138.582031 26.957031 138.464844 26.367188 C 138.34375 25.773438 138.171875 25.199219 137.941406 24.640625 C 137.707031 24.085938 137.425781 23.554688 137.089844 23.054688 C 136.753906 22.550781 136.375 22.085938 135.949219 21.660156 C 135.519531 21.234375 135.058594 20.851562 134.554688 20.515625 C 134.054688 20.183594 133.523438 19.898438 132.96875 19.667969 C 132.410156 19.4375 131.835938 19.261719 131.242188 19.140625 C 130.652344 19.023438 130.054688 18.964844 129.453125 18.964844 Z M 129.453125 18.964844 " fill-opacity="1" fill-rule="nonzero"/></g></svg>