<svg xmlns="http://www.w3.org/2000/svg" xmlns:xlink="http://www.w3.org/1999/xlink" width="40" zoomAndPan="magnify" viewBox="0 0 30 37.92" height="40" preserveAspectRatio="xMidYMid meet" version="1.0"><defs><clipPath id="6ec537af13"><path d="M 5.984375 3.957031 L 23.945312 3.957031 L 23.945312 25.660156 L 5.984375 25.660156 Z M 5.984375 3.957031 " clip-rule="nonzero"/></clipPath><clipPath id="6a651a71b1"><path d="M 12 17 L 23.945312 17 L 23.945312 25.660156 L 12 25.660156 Z M 12 17 " clip-rule="nonzero"/></clipPath></defs><g clip-path="url(#6ec537af13)"><path fill="#16b9a6" d="M 22.277344 8.023438 L 18.960938 4.695312 C 18.488281 4.21875 17.859375 3.957031 17.1875 3.957031 L 8.488281 3.957031 C 7.109375 3.957031 5.988281 5.078125 5.988281 6.460938 L 5.988281 23.476562 C 5.988281 24.855469 7.109375 25.976562 8.488281 25.976562 L 12.03125 25.976562 C 12.308594 25.976562 12.53125 25.753906 12.53125 25.476562 C 12.53125 25.199219 12.308594 24.976562 12.03125 24.976562 L 8.488281 24.976562 C 7.660156 24.976562 6.988281 24.304688 6.988281 23.476562 L 6.988281 6.460938 C 6.988281 5.632812 7.660156 4.957031 8.488281 4.957031 L 17.1875 4.957031 C 17.292969 4.957031 17.394531 4.96875 17.496094 4.992188 L 17.496094 7.960938 C 17.496094 8.789062 18.171875 9.460938 19 9.460938 L 21.964844 9.460938 C 21.988281 9.570312 22 9.675781 22 9.789062 L 22 18.726562 C 22 19.003906 22.226562 19.226562 22.5 19.226562 C 22.777344 19.226562 23.003906 19.003906 23.003906 18.726562 L 23.003906 9.789062 C 23.003906 9.125 22.746094 8.5 22.277344 8.023438 Z M 18.5 7.960938 L 18.5 5.652344 L 21.300781 8.460938 L 19 8.460938 C 18.722656 8.460938 18.5 8.238281 18.5 7.960938 Z M 18.5 7.960938 " fill-opacity="1" fill-rule="nonzero"/></g><path fill="#16b9a6" d="M 9.992188 9.460938 L 14.996094 9.460938 C 15.273438 9.460938 15.496094 9.238281 15.496094 8.960938 C 15.496094 8.6875 15.273438 8.460938 14.996094 8.460938 L 9.992188 8.460938 C 9.714844 8.460938 9.488281 8.6875 9.488281 8.960938 C 9.488281 9.238281 9.714844 9.460938 9.992188 9.460938 Z M 9.992188 9.460938 " fill-opacity="1" fill-rule="nonzero"/><path fill="#16b9a6" d="M 19 11.964844 L 9.992188 11.964844 C 9.714844 11.964844 9.488281 12.1875 9.488281 12.464844 C 9.488281 12.742188 9.714844 12.964844 9.992188 12.964844 L 19 12.964844 C 19.277344 12.964844 19.5 12.742188 19.5 12.464844 C 19.5 12.1875 19.277344 11.964844 19 11.964844 Z M 19 11.964844 " fill-opacity="1" fill-rule="nonzero"/><path fill="#16b9a6" d="M 19 14.96875 L 9.992188 14.96875 C 9.714844 14.96875 9.488281 15.191406 9.488281 15.46875 C 9.488281 15.742188 9.714844 15.96875 9.992188 15.96875 L 19 15.96875 C 19.277344 15.96875 19.5 15.746094 19.5 15.46875 C 19.5 15.191406 19.277344 14.96875 19 14.96875 Z M 19 14.96875 " fill-opacity="1" fill-rule="nonzero"/><path fill="#16b9a6" d="M 13.757812 17.96875 L 9.992188 17.96875 C 9.714844 17.96875 9.488281 18.195312 9.488281 18.46875 C 9.488281 18.746094 9.714844 18.972656 9.992188 18.972656 L 13.757812 18.972656 C 14.035156 18.972656 14.257812 18.746094 14.257812 18.46875 C 14.257812 18.195312 14.035156 17.96875 13.757812 17.96875 Z M 13.757812 17.96875 " fill-opacity="1" fill-rule="nonzero"/><path fill="#16b9a6" d="M 9.992188 20.972656 C 9.714844 20.972656 9.488281 21.195312 9.488281 21.472656 C 9.488281 21.75 9.714844 21.972656 9.992188 21.972656 L 12.027344 21.972656 C 12.304688 21.972656 12.527344 21.75 12.527344 21.472656 C 12.527344 21.195312 12.304688 20.972656 12.027344 20.972656 Z M 9.992188 20.972656 " fill-opacity="1" fill-rule="nonzero"/><g clip-path="url(#6a651a71b1)"><path fill="#16b9a6" d="M 21 19.972656 C 20.644531 19.972656 20.300781 20.039062 19.984375 20.152344 C 20.035156 19.238281 19.59375 18.328125 18.75 17.839844 C 17.554688 17.148438 16.019531 17.5625 15.332031 18.753906 L 13.328125 22.222656 C 12.640625 23.417969 13.050781 24.949219 14.246094 25.640625 C 14.628906 25.863281 15.058594 25.976562 15.492188 25.976562 C 15.707031 25.976562 15.925781 25.949219 16.144531 25.890625 C 16.789062 25.71875 17.328125 25.304688 17.664062 24.726562 L 18.144531 23.894531 C 18.53125 25.101562 19.664062 25.976562 21 25.976562 C 22.65625 25.976562 24.003906 24.628906 24.003906 22.976562 C 24.003906 21.320312 22.65625 19.972656 21 19.972656 Z M 16.195312 19.253906 C 16.476562 18.773438 16.980469 18.503906 17.5 18.503906 C 17.753906 18.503906 18.011719 18.570312 18.246094 18.707031 C 18.964844 19.121094 19.210938 20.039062 18.796875 20.757812 L 18.046875 22.058594 L 15.445312 20.554688 L 16.199219 19.253906 Z M 16.796875 24.222656 C 16.382812 24.941406 15.460938 25.1875 14.746094 24.773438 C 14.027344 24.359375 13.78125 23.441406 14.195312 22.722656 L 14.945312 21.421875 L 17.546875 22.925781 L 16.792969 24.222656 Z M 19 22.976562 C 19 22.042969 19.636719 21.269531 20.5 21.042969 L 20.5 24.90625 C 19.636719 24.683594 19 23.90625 19 22.976562 Z M 21.5 24.90625 L 21.5 21.042969 C 22.363281 21.269531 23 22.042969 23 22.976562 C 23 23.90625 22.363281 24.683594 21.5 24.90625 Z M 21.5 24.90625 " fill-opacity="1" fill-rule="nonzero"/></g></svg>