<svg xmlns="http://www.w3.org/2000/svg" xmlns:xlink="http://www.w3.org/1999/xlink" width="40" zoomAndPan="magnify" viewBox="0 0 30 37.92" height="40" preserveAspectRatio="xMidYMid meet" version="1.0"><defs><clipPath id="e4def2e9a6"><path d="M 3.023438 5.824219 L 26.976562 5.824219 L 26.976562 20.792969 L 3.023438 20.792969 Z M 3.023438 5.824219 " clip-rule="nonzero"/></clipPath></defs><g clip-path="url(#e4def2e9a6)"><path fill="#16b9a6" d="M 19.355469 12.355469 C 21.15625 12.355469 22.609375 10.890625 22.609375 9.089844 C 22.609375 7.289062 21.15625 5.824219 19.355469 5.824219 C 17.550781 5.824219 16.089844 7.289062 16.089844 9.089844 C 16.089844 10.890625 17.550781 12.355469 19.355469 12.355469 Z M 10.644531 12.355469 C 12.449219 12.355469 13.902344 10.890625 13.902344 9.089844 C 13.902344 7.289062 12.449219 5.824219 10.644531 5.824219 C 8.84375 5.824219 7.382812 7.289062 7.382812 9.089844 C 7.382812 10.890625 8.84375 12.355469 10.644531 12.355469 Z M 10.644531 14.53125 C 8.105469 14.53125 3.027344 15.804688 3.027344 18.34375 L 3.027344 21.0625 L 18.265625 21.0625 L 18.265625 18.34375 C 18.265625 15.804688 13.1875 14.53125 10.644531 14.53125 Z M 19.355469 14.53125 C 19.039062 14.53125 18.683594 14.554688 18.304688 14.59375 C 19.566406 15.5 20.441406 16.726562 20.441406 18.34375 L 20.441406 21.0625 L 26.972656 21.0625 L 26.972656 18.34375 C 26.972656 15.804688 21.894531 14.53125 19.355469 14.53125 Z M 19.355469 14.53125 " fill-opacity="1" fill-rule="nonzero"/></g></svg>