<svg xmlns="http://www.w3.org/2000/svg" xmlns:xlink="http://www.w3.org/1999/xlink" width="200" zoomAndPan="magnify" viewBox="0 0 150 157.92" height="200" preserveAspectRatio="xMidYMid meet" version="1.0"><defs><clipPath id="aab336676e"><path d="M 34.265625 33.476562 L 121.972656 33.476562 L 121.972656 121.179688 L 34.265625 121.179688 Z M 34.265625 33.476562 " clip-rule="nonzero"/></clipPath></defs><g clip-path="url(#aab336676e)"><path fill="#16b9a6" d="M 78.296875 33.476562 C 76.855469 33.476562 75.414062 33.546875 73.980469 33.6875 C 72.546875 33.828125 71.121094 34.039062 69.707031 34.320312 C 68.292969 34.601562 66.894531 34.953125 65.515625 35.371094 C 64.136719 35.789062 62.777344 36.273438 61.445312 36.828125 C 60.113281 37.378906 58.8125 37.992188 57.539062 38.671875 C 56.269531 39.355469 55.035156 40.09375 53.835938 40.894531 C 52.636719 41.695312 51.480469 42.554688 50.363281 43.46875 C 49.25 44.382812 48.183594 45.351562 47.164062 46.371094 C 46.144531 47.390625 45.175781 48.457031 44.261719 49.570312 C 43.347656 50.6875 42.488281 51.84375 41.6875 53.042969 C 40.886719 54.242188 40.144531 55.476562 39.464844 56.75 C 38.785156 58.019531 38.171875 59.320312 37.617188 60.65625 C 37.066406 61.988281 36.582031 63.34375 36.164062 64.722656 C 35.746094 66.101562 35.394531 67.5 35.113281 68.914062 C 34.832031 70.328125 34.621094 71.753906 34.480469 73.1875 C 34.335938 74.621094 34.265625 76.0625 34.265625 77.503906 C 34.265625 78.945312 34.335938 80.382812 34.480469 81.820312 C 34.621094 83.253906 34.832031 84.679688 35.113281 86.09375 C 35.394531 87.507812 35.746094 88.90625 36.164062 90.285156 C 36.582031 91.664062 37.066406 93.019531 37.617188 94.351562 C 38.171875 95.683594 38.785156 96.988281 39.464844 98.257812 C 40.144531 99.53125 40.886719 100.765625 41.6875 101.964844 C 42.488281 103.164062 43.347656 104.320312 44.261719 105.433594 C 45.175781 106.550781 46.144531 107.617188 47.164062 108.636719 C 48.183594 109.65625 49.25 110.625 50.363281 111.539062 C 51.480469 112.453125 52.636719 113.3125 53.835938 114.113281 C 55.035156 114.914062 56.269531 115.652344 57.539062 116.332031 C 58.8125 117.011719 60.113281 117.628906 61.445312 118.179688 C 62.777344 118.730469 64.136719 119.21875 65.515625 119.636719 C 66.894531 120.054688 68.292969 120.40625 69.707031 120.6875 C 71.121094 120.96875 72.546875 121.179688 73.980469 121.320312 C 75.414062 121.460938 76.855469 121.53125 78.296875 121.53125 C 79.738281 121.53125 81.175781 121.460938 82.609375 121.320312 C 84.046875 121.179688 85.472656 120.96875 86.886719 120.6875 C 88.300781 120.40625 89.695312 120.054688 91.078125 119.636719 C 92.457031 119.21875 93.8125 118.730469 95.144531 118.179688 C 96.476562 117.628906 97.777344 117.011719 99.050781 116.332031 C 100.320312 115.652344 101.558594 114.914062 102.757812 114.113281 C 103.957031 113.3125 105.113281 112.453125 106.226562 111.539062 C 107.339844 110.625 108.410156 109.65625 109.429688 108.636719 C 110.449219 107.617188 111.414062 106.550781 112.332031 105.433594 C 113.246094 104.320312 114.101562 103.164062 114.902344 101.964844 C 115.707031 100.765625 116.445312 99.53125 117.125 98.257812 C 117.804688 96.988281 118.421875 95.683594 118.972656 94.351562 C 119.523438 93.019531 120.007812 91.664062 120.429688 90.285156 C 120.847656 88.90625 121.195312 87.507812 121.476562 86.09375 C 121.757812 84.679688 121.972656 83.253906 122.113281 81.820312 C 122.253906 80.382812 122.324219 78.945312 122.324219 77.503906 C 122.324219 76.0625 122.253906 74.621094 122.113281 73.1875 C 121.972656 71.753906 121.757812 70.328125 121.476562 68.914062 C 121.195312 67.5 120.847656 66.101562 120.429688 64.722656 C 120.007812 63.34375 119.523438 61.988281 118.972656 60.65625 C 118.421875 59.320312 117.804688 58.019531 117.125 56.75 C 116.445312 55.476562 115.707031 54.242188 114.902344 53.042969 C 114.101562 51.84375 113.246094 50.6875 112.332031 49.570312 C 111.414062 48.457031 110.449219 47.390625 109.429688 46.371094 C 108.410156 45.351562 107.339844 44.382812 106.226562 43.46875 C 105.113281 42.554688 103.957031 41.695312 102.757812 40.894531 C 101.558594 40.09375 100.320312 39.355469 99.050781 38.671875 C 97.777344 37.992188 96.476562 37.378906 95.144531 36.828125 C 93.8125 36.273438 92.457031 35.789062 91.078125 35.371094 C 89.695312 34.953125 88.300781 34.601562 86.886719 34.320312 C 85.472656 34.039062 84.046875 33.828125 82.609375 33.6875 C 81.175781 33.546875 79.738281 33.476562 78.296875 33.476562 Z M 100.308594 83.007812 L 83.761719 83.007812 L 83.761719 99.519531 C 83.761719 99.878906 83.726562 100.238281 83.65625 100.589844 C 83.585938 100.945312 83.480469 101.289062 83.34375 101.625 C 83.207031 101.957031 83.035156 102.273438 82.835938 102.574219 C 82.632812 102.875 82.40625 103.152344 82.152344 103.410156 C 81.894531 103.664062 81.617188 103.894531 81.316406 104.09375 C 81.015625 104.292969 80.699219 104.464844 80.363281 104.601562 C 80.03125 104.742188 79.6875 104.84375 79.332031 104.914062 C 78.976562 104.984375 78.621094 105.019531 78.257812 105.019531 C 77.898438 105.019531 77.539062 104.984375 77.183594 104.914062 C 76.832031 104.84375 76.488281 104.742188 76.152344 104.601562 C 75.820312 104.464844 75.5 104.292969 75.203125 104.09375 C 74.902344 103.894531 74.621094 103.664062 74.367188 103.410156 C 74.113281 103.152344 73.882812 102.875 73.683594 102.574219 C 73.480469 102.273438 73.3125 101.957031 73.175781 101.625 C 73.035156 101.289062 72.933594 100.945312 72.859375 100.589844 C 72.789062 100.238281 72.753906 99.878906 72.753906 99.519531 L 72.753906 83.007812 L 56.28125 83.007812 C 55.921875 83.007812 55.5625 82.972656 55.207031 82.902344 C 54.851562 82.832031 54.507812 82.726562 54.175781 82.589844 C 53.839844 82.449219 53.523438 82.28125 53.222656 82.078125 C 52.921875 81.878906 52.644531 81.652344 52.390625 81.394531 C 52.132812 81.140625 51.90625 80.863281 51.707031 80.5625 C 51.503906 80.261719 51.335938 79.945312 51.195312 79.609375 C 51.058594 79.277344 50.953125 78.929688 50.882812 78.578125 C 50.8125 78.222656 50.777344 77.863281 50.777344 77.503906 C 50.777344 77.140625 50.8125 76.785156 50.882812 76.429688 C 50.953125 76.074219 51.058594 75.730469 51.195312 75.398438 C 51.335938 75.0625 51.503906 74.746094 51.707031 74.445312 C 51.90625 74.144531 52.132812 73.867188 52.390625 73.613281 C 52.644531 73.355469 52.921875 73.128906 53.222656 72.925781 C 53.523438 72.726562 53.839844 72.558594 54.175781 72.417969 C 54.507812 72.28125 54.851562 72.175781 55.207031 72.105469 C 55.5625 72.035156 55.921875 72 56.28125 72 L 72.753906 72 L 72.753906 55.488281 C 72.753906 55.128906 72.789062 54.769531 72.859375 54.414062 C 72.933594 54.0625 73.035156 53.71875 73.175781 53.382812 C 73.3125 53.050781 73.480469 52.730469 73.683594 52.429688 C 73.882812 52.132812 74.113281 51.851562 74.367188 51.597656 C 74.621094 51.34375 74.902344 51.113281 75.203125 50.914062 C 75.5 50.710938 75.820312 50.542969 76.152344 50.40625 C 76.488281 50.265625 76.832031 50.160156 77.183594 50.089844 C 77.539062 50.019531 77.898438 49.984375 78.257812 49.984375 C 78.621094 49.984375 78.976562 50.019531 79.332031 50.089844 C 79.6875 50.160156 80.03125 50.265625 80.363281 50.40625 C 80.699219 50.542969 81.015625 50.710938 81.316406 50.914062 C 81.617188 51.113281 81.894531 51.34375 82.152344 51.597656 C 82.40625 51.851562 82.632812 52.132812 82.835938 52.429688 C 83.035156 52.730469 83.207031 53.050781 83.34375 53.382812 C 83.480469 53.71875 83.585938 54.0625 83.65625 54.414062 C 83.726562 54.769531 83.761719 55.128906 83.761719 55.488281 L 83.761719 72 L 100.308594 72 C 100.671875 72 101.027344 72.035156 101.382812 72.105469 C 101.738281 72.175781 102.082031 72.28125 102.414062 72.417969 C 102.75 72.558594 103.066406 72.726562 103.367188 72.925781 C 103.667969 73.128906 103.945312 73.355469 104.203125 73.613281 C 104.457031 73.867188 104.683594 74.144531 104.886719 74.445312 C 105.085938 74.746094 105.257812 75.0625 105.394531 75.398438 C 105.53125 75.730469 105.636719 76.074219 105.707031 76.429688 C 105.777344 76.785156 105.8125 77.140625 105.8125 77.503906 C 105.8125 77.863281 105.777344 78.222656 105.707031 78.578125 C 105.636719 78.929688 105.53125 79.277344 105.394531 79.609375 C 105.257812 79.945312 105.085938 80.261719 104.886719 80.5625 C 104.683594 80.863281 104.457031 81.140625 104.203125 81.394531 C 103.945312 81.652344 103.667969 81.878906 103.367188 82.078125 C 103.066406 82.28125 102.75 82.449219 102.414062 82.589844 C 102.082031 82.726562 101.738281 82.832031 101.382812 82.902344 C 101.027344 82.972656 100.671875 83.007812 100.308594 83.007812 Z M 100.308594 83.007812 " fill-opacity="1" fill-rule="nonzero"/></g></svg>