<svg xmlns="http://www.w3.org/2000/svg" xmlns:xlink="http://www.w3.org/1999/xlink" width="200" zoomAndPan="magnify" viewBox="0 0 150 149.999998" height="200" preserveAspectRatio="xMidYMid meet" version="1.0"><defs><clipPath id="e5dff905b9"><path d="M 32 110 L 107 110 L 107 124.300781 L 32 124.300781 Z M 32 110 " clip-rule="nonzero"/></clipPath><clipPath id="db09558f71"><path d="M 4.617188 57 L 35 57 L 35 60 L 4.617188 60 Z M 4.617188 57 " clip-rule="nonzero"/></clipPath><clipPath id="b7b427e86a"><path d="M 105 57 L 135.117188 57 L 135.117188 60 L 105 60 Z M 105 57 " clip-rule="nonzero"/></clipPath><clipPath id="8fe576bebb"><path d="M 14 29.800781 L 39 29.800781 L 39 45 L 14 45 Z M 14 29.800781 " clip-rule="nonzero"/></clipPath><clipPath id="8968870b8f"><path d="M 101 29.800781 L 126 29.800781 L 126 45 L 101 45 Z M 101 29.800781 " clip-rule="nonzero"/></clipPath></defs><path fill="#bf1b2c" d="M 53.972656 61.097656 L 51.894531 102.164062 C 48.078125 102.261719 45.144531 101.183594 45.144531 101.183594 L 47.242188 57.957031 C 47.40625 54.070312 51.019531 50.96875 55.3125 50.96875 L 80.585938 50.96875 C 81.058594 50.96875 81.519531 51.007812 81.96875 51.078125 C 81.96875 51.078125 53.972656 51.867188 53.972656 61.097656 Z M 97.15625 53.90625 C 96.9375 48.789062 92.179688 44.703125 86.523438 44.703125 L 53.226562 44.703125 C 47.574219 44.703125 42.8125 48.789062 42.59375 53.90625 L 39.835938 108.417969 L 40.6875 108.996094 C 45.472656 112.238281 57.199219 114.417969 69.875 114.417969 C 82.550781 114.417969 94.277344 112.238281 99.0625 108.996094 L 99.914062 108.417969 L 97.15625 53.90625 " fill-opacity="1" fill-rule="nonzero"/><g clip-path="url(#e5dff905b9)"><path fill="#393536" d="M 101.378906 110.589844 C 96.175781 114.117188 84.03125 116.589844 69.875 116.589844 C 55.722656 116.589844 43.574219 114.117188 38.375 110.589844 C 36.632812 111.773438 32.957031 113.070312 32.957031 114.429688 C 32.957031 119.867188 50.984375 124.273438 69.875 124.273438 C 88.765625 124.273438 106.792969 119.867188 106.792969 114.429688 C 106.792969 113.070312 103.117188 111.773438 101.378906 110.589844 " fill-opacity="1" fill-rule="nonzero"/></g><path fill="#bf1b2c" d="M 37.324219 72.699219 C 37.1875 72.699219 37.050781 72.734375 36.925781 72.804688 L 14.90625 85.527344 C 14.523438 85.746094 14.394531 86.230469 14.613281 86.613281 C 14.832031 86.996094 15.320312 87.125 15.699219 86.90625 L 37.722656 74.1875 C 38.101562 73.964844 38.234375 73.476562 38.011719 73.097656 C 37.867188 72.839844 37.597656 72.699219 37.324219 72.699219 " fill-opacity="1" fill-rule="nonzero"/><g clip-path="url(#db09558f71)"><path fill="#bf1b2c" d="M 33.269531 59.277344 L 5.4375 59.277344 C 5.023438 59.277344 4.675781 58.953125 4.652344 58.535156 C 4.652344 58.53125 4.652344 58.523438 4.652344 58.519531 C 4.625 58.066406 4.984375 57.683594 5.4375 57.683594 L 33.304688 57.683594 C 33.75 57.683594 34.113281 58.054688 34.097656 58.503906 C 34.085938 58.941406 33.707031 59.277344 33.269531 59.277344 " fill-opacity="1" fill-rule="nonzero"/></g><path fill="#bf1b2c" d="M 102.429688 72.699219 C 102.5625 72.699219 102.699219 72.734375 102.824219 72.804688 L 124.847656 85.527344 C 125.226562 85.746094 125.359375 86.230469 125.136719 86.613281 C 124.917969 86.996094 124.429688 87.125 124.050781 86.90625 L 102.027344 74.1875 C 101.648438 73.964844 101.515625 73.476562 101.738281 73.097656 C 101.882812 72.839844 102.152344 72.699219 102.429688 72.699219 " fill-opacity="1" fill-rule="nonzero"/><g clip-path="url(#b7b427e86a)"><path fill="#bf1b2c" d="M 106.480469 59.277344 L 134.3125 59.277344 C 134.730469 59.277344 135.074219 58.953125 135.097656 58.535156 C 135.097656 58.53125 135.101562 58.523438 135.101562 58.519531 C 135.128906 58.066406 134.765625 57.683594 134.3125 57.683594 L 106.449219 57.683594 C 106 57.683594 105.640625 58.054688 105.652344 58.503906 C 105.664062 58.941406 106.046875 59.277344 106.480469 59.277344 " fill-opacity="1" fill-rule="nonzero"/></g><g clip-path="url(#8fe576bebb)"><path fill="#bf1b2c" d="M 37.324219 44.265625 C 37.1875 44.265625 37.050781 44.230469 36.925781 44.160156 L 14.90625 31.4375 C 14.523438 31.21875 14.394531 30.730469 14.613281 30.351562 C 14.832031 29.96875 15.320312 29.839844 15.699219 30.058594 L 37.722656 42.777344 C 38.101562 42.996094 38.234375 43.484375 38.011719 43.867188 C 37.867188 44.121094 37.597656 44.265625 37.324219 44.265625 " fill-opacity="1" fill-rule="nonzero"/></g><g clip-path="url(#8968870b8f)"><path fill="#bf1b2c" d="M 102.429688 44.265625 C 102.5625 44.265625 102.699219 44.230469 102.824219 44.160156 L 124.847656 31.4375 C 125.226562 31.21875 125.359375 30.730469 125.136719 30.351562 C 124.917969 29.96875 124.429688 29.839844 124.050781 30.058594 L 102.027344 42.777344 C 101.648438 42.996094 101.515625 43.484375 101.738281 43.867188 C 101.882812 44.121094 102.152344 44.265625 102.429688 44.265625 " fill-opacity="1" fill-rule="nonzero"/></g><path fill="#ed1c24" d="M 69.875 114.417969 C 72.277344 114.417969 74.644531 114.339844 76.9375 114.191406 L 76.9375 83.730469 C 76.9375 79.828125 73.773438 76.667969 69.875 76.667969 C 65.976562 76.667969 62.816406 79.828125 62.816406 83.730469 L 62.816406 114.191406 C 65.105469 114.339844 67.472656 114.417969 69.875 114.417969 " fill-opacity="1" fill-rule="nonzero"/></svg>