<svg xmlns="http://www.w3.org/2000/svg" xmlns:xlink="http://www.w3.org/1999/xlink" width="200" zoomAndPan="magnify" viewBox="0 0 150 157.92" height="200" preserveAspectRatio="xMidYMid meet" version="1.0"><defs><clipPath id="653520a5e8"><path d="M 32.945312 32.910156 L 116.90625 32.910156 L 116.90625 116.867188 L 32.945312 116.867188 Z M 32.945312 32.910156 " clip-rule="nonzero"/></clipPath></defs><g clip-path="url(#653520a5e8)"><path fill="#16b9a6" d="M 74.996094 32.910156 C 51.808594 32.910156 32.945312 51.773438 32.945312 74.957031 C 32.945312 98.144531 51.808594 117.007812 74.996094 117.007812 C 98.183594 117.007812 117.046875 98.144531 117.046875 74.957031 C 117.046875 51.773438 98.183594 32.910156 74.996094 32.910156 Z M 99.484375 68.105469 L 95.675781 90.296875 C 95.460938 91.558594 94.367188 92.480469 93.085938 92.480469 L 56.90625 92.480469 C 55.625 92.480469 54.53125 91.558594 54.316406 90.296875 L 50.507812 68.105469 C 50.339844 67.132812 50.730469 66.148438 51.519531 65.558594 C 52.3125 64.960938 53.359375 64.867188 54.25 65.296875 L 64.390625 70.234375 L 72.699219 55.28125 C 73.625 53.613281 76.371094 53.613281 77.296875 55.28125 L 85.605469 70.234375 L 95.746094 65.296875 C 96.632812 64.867188 97.683594 64.960938 98.476562 65.558594 C 99.261719 66.148438 99.65625 67.132812 99.484375 68.105469 Z M 99.484375 68.105469 " fill-opacity="1" fill-rule="nonzero"/></g></svg>