<svg xmlns="http://www.w3.org/2000/svg" xmlns:xlink="http://www.w3.org/1999/xlink" width="40" zoomAndPan="magnify" viewBox="0 0 30 37.92" height="40" preserveAspectRatio="xMidYMid meet" version="1.0"><defs><clipPath id="809fb8e311"><path d="M 4.960938 16 L 25.167969 16 L 25.167969 28.441406 L 4.960938 28.441406 Z M 4.960938 16 " clip-rule="nonzero"/></clipPath><clipPath id="cd0860f18b"><path d="M 8 2.992188 L 22 2.992188 L 22 16 L 8 16 Z M 8 2.992188 " clip-rule="nonzero"/></clipPath></defs><g clip-path="url(#809fb8e311)"><path fill="#16b9a6" d="M 16.882812 16.796875 L 13.117188 16.796875 C 12.582031 16.796875 12.050781 16.847656 11.527344 16.953125 C 11 17.058594 10.492188 17.214844 9.996094 17.417969 C 9.503906 17.625 9.035156 17.875 8.589844 18.171875 C 8.144531 18.472656 7.730469 18.808594 7.351562 19.1875 C 6.972656 19.566406 6.636719 19.976562 6.339844 20.421875 C 6.042969 20.867188 5.789062 21.339844 5.585938 21.832031 C 5.378906 22.328125 5.222656 22.835938 5.121094 23.363281 C 5.015625 23.886719 4.960938 24.417969 4.960938 24.953125 L 4.960938 27.460938 C 4.960938 27.636719 5.023438 27.78125 5.144531 27.90625 C 5.269531 28.027344 5.414062 28.089844 5.589844 28.089844 L 24.410156 28.089844 C 24.582031 28.089844 24.730469 28.027344 24.855469 27.90625 C 24.976562 27.78125 25.039062 27.636719 25.039062 27.460938 L 25.039062 24.953125 C 25.039062 24.417969 24.984375 23.886719 24.878906 23.363281 C 24.773438 22.835938 24.621094 22.328125 24.414062 21.832031 C 24.210938 21.339844 23.957031 20.867188 23.660156 20.421875 C 23.363281 19.976562 23.023438 19.566406 22.644531 19.1875 C 22.269531 18.808594 21.855469 18.472656 21.410156 18.171875 C 20.964844 17.875 20.496094 17.625 20 17.417969 C 19.507812 17.214844 18.996094 17.058594 18.472656 16.953125 C 17.945312 16.847656 17.417969 16.796875 16.882812 16.796875 Z M 16.882812 16.796875 " fill-opacity="1" fill-rule="nonzero"/></g><g clip-path="url(#cd0860f18b)"><path fill="#16b9a6" d="M 21.273438 9.265625 C 21.273438 9.679688 21.234375 10.085938 21.152344 10.492188 C 21.074219 10.894531 20.953125 11.289062 20.796875 11.667969 C 20.636719 12.050781 20.445312 12.410156 20.214844 12.753906 C 19.988281 13.09375 19.726562 13.414062 19.4375 13.703125 C 19.144531 13.996094 18.828125 14.253906 18.484375 14.484375 C 18.144531 14.714844 17.78125 14.90625 17.402344 15.0625 C 17.019531 15.222656 16.628906 15.339844 16.222656 15.421875 C 15.820312 15.5 15.410156 15.542969 15 15.542969 C 14.585938 15.542969 14.179688 15.5 13.777344 15.421875 C 13.371094 15.339844 12.980469 15.222656 12.597656 15.0625 C 12.21875 14.90625 11.855469 14.714844 11.515625 14.484375 C 11.171875 14.253906 10.855469 13.996094 10.5625 13.703125 C 10.273438 13.414062 10.011719 13.09375 9.78125 12.753906 C 9.554688 12.410156 9.359375 12.050781 9.203125 11.667969 C 9.046875 11.289062 8.925781 10.894531 8.847656 10.492188 C 8.765625 10.085938 8.726562 9.679688 8.726562 9.265625 C 8.726562 8.855469 8.765625 8.449219 8.847656 8.042969 C 8.925781 7.640625 9.046875 7.246094 9.203125 6.867188 C 9.359375 6.484375 9.554688 6.125 9.78125 5.78125 C 10.011719 5.441406 10.273438 5.121094 10.5625 4.832031 C 10.855469 4.539062 11.171875 4.28125 11.515625 4.050781 C 11.855469 3.820312 12.21875 3.628906 12.597656 3.472656 C 12.980469 3.3125 13.371094 3.195312 13.777344 3.113281 C 14.179688 3.035156 14.585938 2.992188 15 2.992188 C 15.410156 2.992188 15.820312 3.035156 16.222656 3.113281 C 16.628906 3.195312 17.019531 3.3125 17.402344 3.472656 C 17.78125 3.628906 18.144531 3.820312 18.484375 4.050781 C 18.828125 4.28125 19.144531 4.539062 19.4375 4.832031 C 19.726562 5.121094 19.988281 5.441406 20.214844 5.78125 C 20.445312 6.125 20.636719 6.484375 20.796875 6.867188 C 20.953125 7.246094 21.074219 7.640625 21.152344 8.042969 C 21.234375 8.449219 21.273438 8.855469 21.273438 9.265625 Z M 21.273438 9.265625 " fill-opacity="1" fill-rule="nonzero"/></g></svg>